<svg width="617" height="411" viewBox="0 0 617 411" fill="none" xmlns="http://www.w3.org/2000/svg">
<path d="M308 66V188" stroke="#10316B" stroke-width="4"/>
<path d="M308 188V333" stroke="#10316B" stroke-width="4"/>
<path d="M203 220L412 220" stroke="#10316B" stroke-width="4"/>
<path d="M307 159L338 159" stroke="#10316B" stroke-width="4"/>
<path d="M205 220V252" stroke="#10316B" stroke-width="4"/>
<path d="M410 220V252" stroke="#10316B" stroke-width="4"/>
<path d="M46 331L567 331" stroke="#10316B" stroke-width="4"/>
<path d="M203 333V365" stroke="#10316B" stroke-width="4"/>
<path d="M410 333V365" stroke="#10316B" stroke-width="4"/>
<path d="M565 333V365" stroke="#10316B" stroke-width="4"/>
<path d="M48 333V365" stroke="#10316B" stroke-width="4"/>
<rect x="189" y="1" width="237" height="66" rx="17" stroke="#404040" stroke-width="2"/>
<path d="M231.64 35V43.84C231.347 43.92 230.88 44 230.24 44.08C229.6 44.16 228.973 44.2 228.36 44.2C227.747 44.2 227.2 44.1467 226.72 44.04C226.267 43.96 225.88 43.8 225.56 43.56C225.24 43.32 225 42.9867 224.84 42.56C224.68 42.1333 224.6 41.5733 224.6 40.88V19.76C224.893 19.7067 225.36 19.64 226 19.56C226.64 19.4533 227.253 19.4 227.84 19.4C228.453 19.4 228.987 19.4533 229.44 19.56C229.92 19.64 230.32 19.8 230.64 20.04C230.96 20.28 231.2 20.6133 231.36 21.04C231.52 21.4667 231.6 22.0267 231.6 22.72V29.08L239.92 19.52C241.733 19.52 243.027 19.8667 243.8 20.56C244.6 21.2267 245 22.0267 245 22.96C245 23.6533 244.827 24.3067 244.48 24.92C244.133 25.5333 243.573 26.2267 242.8 27L237.8 32C238.467 32.7467 239.16 33.52 239.88 34.32C240.627 35.12 241.347 35.9067 242.04 36.68C242.76 37.4267 243.44 38.1467 244.08 38.84C244.747 39.5333 245.32 40.1333 245.8 40.64C245.8 41.2267 245.693 41.7467 245.48 42.2C245.267 42.6533 244.973 43.04 244.6 43.36C244.253 43.68 243.853 43.92 243.4 44.08C242.947 44.24 242.467 44.32 241.96 44.32C240.867 44.32 239.973 44.0533 239.28 43.52C238.587 42.96 237.92 42.3067 237.28 41.56L231.64 35ZM258.988 44.64C257.415 44.64 255.948 44.4267 254.588 44C253.255 43.5467 252.081 42.88 251.068 42C250.081 41.12 249.295 40.0133 248.708 38.68C248.148 37.3467 247.868 35.7867 247.868 34C247.868 32.24 248.148 30.7333 248.708 29.48C249.295 28.2 250.055 27.16 250.988 26.36C251.921 25.5333 252.988 24.9333 254.188 24.56C255.388 24.16 256.615 23.96 257.868 23.96C259.281 23.96 260.561 24.1733 261.708 24.6C262.881 25.0267 263.881 25.6133 264.708 26.36C265.561 27.1067 266.215 28 266.668 29.04C267.148 30.08 267.388 31.2133 267.388 32.44C267.388 33.3467 267.135 34.04 266.628 34.52C266.121 35 265.415 35.3067 264.508 35.44L254.628 36.92C254.921 37.8 255.521 38.4667 256.428 38.92C257.335 39.3467 258.375 39.56 259.548 39.56C260.641 39.56 261.668 39.4267 262.628 39.16C263.615 38.8667 264.415 38.5333 265.028 38.16C265.455 38.4267 265.815 38.8 266.108 39.28C266.401 39.76 266.548 40.2667 266.548 40.8C266.548 42 265.988 42.8933 264.868 43.48C264.015 43.9333 263.055 44.24 261.988 44.4C260.921 44.56 259.921 44.64 258.988 44.64ZM257.868 28.92C257.228 28.92 256.668 29.0267 256.188 29.24C255.735 29.4533 255.361 29.7333 255.068 30.08C254.775 30.4 254.548 30.7733 254.388 31.2C254.255 31.6 254.175 32.0133 254.148 32.44L260.988 31.32C260.908 30.7867 260.615 30.2533 260.108 29.72C259.601 29.1867 258.855 28.92 257.868 28.92ZM278.261 37.32C278.261 38.0133 278.475 38.5067 278.901 38.8C279.355 39.0933 279.981 39.24 280.781 39.24C281.181 39.24 281.595 39.2133 282.021 39.16C282.448 39.08 282.821 38.9867 283.141 38.88C283.381 39.1733 283.581 39.5067 283.741 39.88C283.928 40.2267 284.021 40.6533 284.021 41.16C284.021 42.1733 283.635 43 282.861 43.64C282.115 44.28 280.781 44.6 278.861 44.6C276.515 44.6 274.701 44.0667 273.421 43C272.168 41.9333 271.541 40.2 271.541 37.8V20.68C271.835 20.6 272.248 20.52 272.781 20.44C273.341 20.3333 273.928 20.28 274.541 20.28C275.715 20.28 276.621 20.4933 277.261 20.92C277.928 21.32 278.261 22.1867 278.261 23.52V26.08H283.501C283.661 26.3733 283.808 26.7467 283.941 27.2C284.101 27.6267 284.181 28.1067 284.181 28.64C284.181 29.5733 283.968 30.2533 283.541 30.68C283.141 31.08 282.595 31.28 281.901 31.28H278.261V37.32ZM288.277 24.84C288.544 24.76 288.957 24.68 289.517 24.6C290.104 24.52 290.704 24.48 291.317 24.48C291.904 24.48 292.424 24.52 292.877 24.6C293.357 24.68 293.757 24.84 294.077 25.08C294.397 25.32 294.637 25.6533 294.797 26.08C294.984 26.48 295.077 27.0133 295.077 27.68V36.28C295.077 37.3733 295.344 38.16 295.877 38.64C296.41 39.0933 297.184 39.32 298.197 39.32C298.81 39.32 299.304 39.2667 299.677 39.16C300.077 39.0533 300.384 38.9467 300.597 38.84V24.84C300.864 24.76 301.277 24.68 301.837 24.6C302.424 24.52 303.024 24.48 303.637 24.48C304.224 24.48 304.744 24.52 305.197 24.6C305.677 24.68 306.077 24.84 306.397 25.08C306.717 25.32 306.957 25.6533 307.117 26.08C307.304 26.48 307.397 27.0133 307.397 27.68V39.84C307.397 41.1733 306.837 42.1733 305.717 42.84C304.784 43.4267 303.664 43.8667 302.357 44.16C301.077 44.48 299.677 44.64 298.157 44.64C296.717 44.64 295.384 44.48 294.157 44.16C292.957 43.84 291.917 43.3467 291.037 42.68C290.157 42.0133 289.477 41.16 288.997 40.12C288.517 39.0533 288.277 37.7733 288.277 36.28V24.84ZM320.678 39.68C321.131 39.68 321.625 39.64 322.158 39.56C322.718 39.4533 323.131 39.32 323.398 39.16V35.96L320.518 36.2C319.771 36.2533 319.158 36.4133 318.678 36.68C318.198 36.9467 317.958 37.3467 317.958 37.88C317.958 38.4133 318.158 38.8533 318.558 39.2C318.985 39.52 319.691 39.68 320.678 39.68ZM320.358 23.96C321.798 23.96 323.105 24.1067 324.278 24.4C325.478 24.6933 326.491 25.1467 327.318 25.76C328.171 26.3467 328.825 27.1067 329.278 28.04C329.731 28.9467 329.958 30.0267 329.958 31.28V40.24C329.958 40.9333 329.758 41.5067 329.358 41.96C328.985 42.3867 328.531 42.76 327.998 43.08C326.265 44.12 323.825 44.64 320.678 44.64C319.265 44.64 317.985 44.5067 316.838 44.24C315.718 43.9733 314.745 43.5733 313.918 43.04C313.118 42.5067 312.491 41.8267 312.038 41C311.611 40.1733 311.398 39.2133 311.398 38.12C311.398 36.28 311.945 34.8667 313.038 33.88C314.131 32.8933 315.825 32.28 318.118 32.04L323.358 31.48V31.2C323.358 30.4267 323.011 29.88 322.318 29.56C321.651 29.2133 320.678 29.04 319.398 29.04C318.385 29.04 317.398 29.1467 316.438 29.36C315.478 29.5733 314.611 29.84 313.838 30.16C313.491 29.92 313.198 29.56 312.958 29.08C312.718 28.5733 312.598 28.0533 312.598 27.52C312.598 26.8267 312.758 26.28 313.078 25.88C313.425 25.4533 313.945 25.0933 314.638 24.8C315.411 24.5067 316.318 24.2933 317.358 24.16C318.425 24.0267 319.425 23.96 320.358 23.96ZM351.204 38.8C351.497 38.8533 351.857 38.9067 352.284 38.96C352.71 38.9867 353.11 39 353.484 39C354.39 39 355.217 38.8667 355.964 38.6C356.737 38.3333 357.39 37.92 357.924 37.36C358.484 36.8 358.91 36.08 359.204 35.2C359.524 34.2933 359.684 33.2133 359.684 31.96C359.684 29.56 359.124 27.76 358.004 26.56C356.884 25.3333 355.39 24.72 353.524 24.72C353.15 24.72 352.764 24.7333 352.364 24.76C351.99 24.7867 351.604 24.8267 351.204 24.88V38.8ZM353.444 44.64C352.99 44.64 352.47 44.6267 351.884 44.6C351.297 44.5733 350.684 44.52 350.044 44.44C349.43 44.36 348.804 44.2533 348.164 44.12C347.55 44.0133 346.977 43.8533 346.444 43.64C344.977 43.08 344.244 42.1067 344.244 40.72V22.04C344.244 21.48 344.39 21.0533 344.684 20.76C345.004 20.44 345.43 20.1867 345.964 20C347.11 19.6267 348.324 19.3867 349.604 19.28C350.884 19.1467 352.03 19.08 353.044 19.08C355.124 19.08 357.004 19.3333 358.684 19.84C360.39 20.3467 361.844 21.1333 363.044 22.2C364.27 23.24 365.217 24.56 365.884 26.16C366.55 27.76 366.884 29.6533 366.884 31.84C366.884 33.9733 366.564 35.84 365.924 37.44C365.284 39.0133 364.364 40.3467 363.164 41.44C361.99 42.5067 360.577 43.3067 358.924 43.84C357.27 44.3733 355.444 44.64 353.444 44.64ZM380.764 31C381.884 31 382.738 30.7467 383.324 30.24C383.938 29.7067 384.244 28.9067 384.244 27.84C384.244 26.8267 383.924 26.0533 383.284 25.52C382.671 24.96 381.764 24.68 380.564 24.68C380.138 24.68 379.778 24.6933 379.484 24.72C379.218 24.72 378.938 24.7467 378.644 24.8V31H380.764ZM378.684 43.84C378.391 43.92 377.924 44 377.284 44.08C376.671 44.16 376.058 44.2 375.444 44.2C374.831 44.2 374.284 44.1467 373.804 44.04C373.351 43.96 372.964 43.8 372.644 43.56C372.324 43.32 372.084 42.9867 371.924 42.56C371.764 42.1333 371.684 41.5733 371.684 40.88V22.04C371.684 21.48 371.831 21.0533 372.124 20.76C372.444 20.44 372.871 20.1867 373.404 20C374.311 19.68 375.338 19.4533 376.484 19.32C377.658 19.16 378.831 19.08 380.004 19.08C383.684 19.08 386.498 19.8667 388.444 21.44C390.391 23.0133 391.364 25.1467 391.364 27.84C391.364 29.1467 391.151 30.3333 390.724 31.4C390.324 32.44 389.711 33.3467 388.884 34.12C388.084 34.8667 387.058 35.4533 385.804 35.88C384.578 36.28 383.151 36.48 381.524 36.48H378.684V43.84Z" fill="#262626"/>
<rect x="338.5" y="131" width="261" height="56" rx="15" stroke="#404040" stroke-width="2"/>
<path d="M379.16 156.176C379.365 156.083 379.683 155.98 380.112 155.868C380.56 155.737 381.008 155.672 381.456 155.672C382.24 155.672 382.893 155.793 383.416 156.036C383.939 156.26 384.256 156.596 384.368 157.044C384.573 157.809 384.76 158.528 384.928 159.2C385.115 159.853 385.292 160.488 385.46 161.104C385.628 161.701 385.787 162.299 385.936 162.896C386.104 163.493 386.263 164.119 386.412 164.772H386.552C386.72 163.633 386.869 162.551 387 161.524C387.131 160.479 387.252 159.461 387.364 158.472C387.476 157.464 387.588 156.475 387.7 155.504C387.812 154.515 387.924 153.516 388.036 152.508C388.727 152.116 389.464 151.92 390.248 151.92C390.939 151.92 391.536 152.069 392.04 152.368C392.544 152.667 392.796 153.171 392.796 153.88C392.796 154.291 392.749 154.879 392.656 155.644C392.581 156.391 392.469 157.231 392.32 158.164C392.189 159.097 392.031 160.077 391.844 161.104C391.657 162.131 391.461 163.111 391.256 164.044C391.051 164.977 390.836 165.827 390.612 166.592C390.407 167.339 390.211 167.917 390.024 168.328C389.744 168.589 389.287 168.804 388.652 168.972C388.017 169.14 387.364 169.224 386.692 169.224C385.815 169.224 385.068 169.112 384.452 168.888C383.855 168.645 383.491 168.309 383.36 167.88C383.117 167.133 382.856 166.247 382.576 165.22C382.296 164.193 381.997 163.064 381.68 161.832C381.419 163.045 381.148 164.231 380.868 165.388C380.588 166.545 380.336 167.525 380.112 168.328C379.832 168.589 379.412 168.804 378.852 168.972C378.292 169.14 377.676 169.224 377.004 169.224C376.164 169.224 375.399 169.112 374.708 168.888C374.036 168.645 373.597 168.309 373.392 167.88C373.224 167.544 373.037 167.049 372.832 166.396C372.645 165.724 372.449 164.968 372.244 164.128C372.039 163.269 371.824 162.345 371.6 161.356C371.395 160.367 371.199 159.377 371.012 158.388C370.844 157.399 370.685 156.437 370.536 155.504C370.387 154.552 370.275 153.684 370.2 152.9C370.461 152.657 370.825 152.433 371.292 152.228C371.759 152.023 372.263 151.92 372.804 151.92C373.513 151.92 374.092 152.079 374.54 152.396C375.007 152.695 375.296 153.208 375.408 153.936C375.707 155.84 375.949 157.427 376.136 158.696C376.341 159.965 376.5 161.011 376.612 161.832C376.743 162.635 376.836 163.26 376.892 163.708C376.948 164.156 377.004 164.511 377.06 164.772H377.2C377.368 164.025 377.527 163.335 377.676 162.7C377.825 162.065 377.975 161.431 378.124 160.796C378.292 160.143 378.46 159.452 378.628 158.724C378.796 157.977 378.973 157.128 379.16 156.176ZM401.512 165.976C401.829 165.976 402.175 165.948 402.548 165.892C402.94 165.817 403.229 165.724 403.416 165.612V163.372L401.4 163.54C400.877 163.577 400.448 163.689 400.112 163.876C399.776 164.063 399.608 164.343 399.608 164.716C399.608 165.089 399.748 165.397 400.028 165.64C400.327 165.864 400.821 165.976 401.512 165.976ZM401.288 154.972C402.296 154.972 403.211 155.075 404.032 155.28C404.872 155.485 405.581 155.803 406.16 156.232C406.757 156.643 407.215 157.175 407.532 157.828C407.849 158.463 408.008 159.219 408.008 160.096V166.368C408.008 166.853 407.868 167.255 407.588 167.572C407.327 167.871 407.009 168.132 406.636 168.356C405.423 169.084 403.715 169.448 401.512 169.448C400.523 169.448 399.627 169.355 398.824 169.168C398.04 168.981 397.359 168.701 396.78 168.328C396.22 167.955 395.781 167.479 395.464 166.9C395.165 166.321 395.016 165.649 395.016 164.884C395.016 163.596 395.399 162.607 396.164 161.916C396.929 161.225 398.115 160.796 399.72 160.628L403.388 160.236V160.04C403.388 159.499 403.145 159.116 402.66 158.892C402.193 158.649 401.512 158.528 400.616 158.528C399.907 158.528 399.216 158.603 398.544 158.752C397.872 158.901 397.265 159.088 396.724 159.312C396.481 159.144 396.276 158.892 396.108 158.556C395.94 158.201 395.856 157.837 395.856 157.464C395.856 156.979 395.968 156.596 396.192 156.316C396.435 156.017 396.799 155.765 397.284 155.56C397.825 155.355 398.46 155.205 399.188 155.112C399.935 155.019 400.635 154.972 401.288 154.972ZM424.778 166.536C424.685 167.413 424.424 168.085 423.994 168.552C423.584 169.019 422.977 169.252 422.174 169.252C421.577 169.252 421.045 169.112 420.578 168.832C420.112 168.533 419.608 168.039 419.066 167.348L416.294 163.876V168.972C416.089 169.009 415.781 169.056 415.37 169.112C414.978 169.187 414.577 169.224 414.166 169.224C413.756 169.224 413.382 169.196 413.046 169.14C412.729 169.084 412.458 168.972 412.234 168.804C412.01 168.636 411.833 168.412 411.702 168.132C411.59 167.833 411.534 167.451 411.534 166.984V150.772C411.74 150.716 412.038 150.66 412.43 150.604C412.841 150.529 413.252 150.492 413.662 150.492C414.073 150.492 414.437 150.52 414.754 150.576C415.09 150.632 415.37 150.744 415.594 150.912C415.818 151.08 415.986 151.313 416.098 151.612C416.229 151.892 416.294 152.265 416.294 152.732V160.124L421.11 155.196C422.081 155.196 422.856 155.411 423.434 155.84C424.032 156.269 424.33 156.811 424.33 157.464C424.33 157.744 424.284 158.005 424.19 158.248C424.097 158.472 423.948 158.705 423.742 158.948C423.556 159.191 423.304 159.452 422.986 159.732C422.688 159.993 422.333 160.301 421.922 160.656L420.298 162.056L424.778 166.536ZM427.458 151.612C427.458 150.903 427.691 150.305 428.158 149.82C428.643 149.335 429.278 149.092 430.062 149.092C430.846 149.092 431.471 149.335 431.938 149.82C432.423 150.305 432.666 150.903 432.666 151.612C432.666 152.321 432.423 152.919 431.938 153.404C431.471 153.889 430.846 154.132 430.062 154.132C429.278 154.132 428.643 153.889 428.158 153.404C427.691 152.919 427.458 152.321 427.458 151.612ZM432.442 168.972C432.236 169.009 431.928 169.056 431.518 169.112C431.126 169.187 430.724 169.224 430.314 169.224C429.903 169.224 429.53 169.196 429.194 169.14C428.876 169.084 428.606 168.972 428.382 168.804C428.158 168.636 427.98 168.412 427.85 168.132C427.738 167.833 427.682 167.451 427.682 166.984V155.588C427.887 155.551 428.186 155.504 428.578 155.448C428.988 155.373 429.399 155.336 429.81 155.336C430.22 155.336 430.584 155.364 430.902 155.42C431.238 155.476 431.518 155.588 431.742 155.756C431.966 155.924 432.134 156.157 432.246 156.456C432.376 156.736 432.442 157.109 432.442 157.576V168.972ZM440.876 168.972C440.671 169.009 440.363 169.056 439.952 169.112C439.56 169.187 439.159 169.224 438.748 169.224C438.337 169.224 437.964 169.196 437.628 169.14C437.311 169.084 437.04 168.972 436.816 168.804C436.592 168.636 436.415 168.412 436.284 168.132C436.172 167.833 436.116 167.451 436.116 166.984V150.744C436.321 150.707 436.62 150.66 437.012 150.604C437.423 150.529 437.833 150.492 438.244 150.492C438.655 150.492 439.019 150.52 439.336 150.576C439.672 150.632 439.952 150.744 440.176 150.912C440.4 151.08 440.568 151.313 440.68 151.612C440.811 151.892 440.876 152.265 440.876 152.732V168.972ZM455.897 162.7V168.888C455.692 168.944 455.365 169 454.917 169.056C454.469 169.112 454.03 169.14 453.601 169.14C453.172 169.14 452.789 169.103 452.453 169.028C452.136 168.972 451.865 168.86 451.641 168.692C451.417 168.524 451.249 168.291 451.137 167.992C451.025 167.693 450.969 167.301 450.969 166.816V152.032C451.174 151.995 451.501 151.948 451.949 151.892C452.397 151.817 452.826 151.78 453.237 151.78C453.666 151.78 454.04 151.817 454.357 151.892C454.693 151.948 454.973 152.06 455.197 152.228C455.421 152.396 455.589 152.629 455.701 152.928C455.813 153.227 455.869 153.619 455.869 154.104V158.556L461.693 151.864C462.962 151.864 463.868 152.107 464.409 152.592C464.969 153.059 465.249 153.619 465.249 154.272C465.249 154.757 465.128 155.215 464.885 155.644C464.642 156.073 464.25 156.559 463.709 157.1L460.209 160.6C460.676 161.123 461.161 161.664 461.665 162.224C462.188 162.784 462.692 163.335 463.177 163.876C463.681 164.399 464.157 164.903 464.605 165.388C465.072 165.873 465.473 166.293 465.809 166.648C465.809 167.059 465.734 167.423 465.585 167.74C465.436 168.057 465.23 168.328 464.969 168.552C464.726 168.776 464.446 168.944 464.129 169.056C463.812 169.168 463.476 169.224 463.121 169.224C462.356 169.224 461.73 169.037 461.245 168.664C460.76 168.272 460.293 167.815 459.845 167.292L455.897 162.7ZM475.041 169.448C473.939 169.448 472.913 169.299 471.961 169C471.027 168.683 470.206 168.216 469.497 167.6C468.806 166.984 468.255 166.209 467.845 165.276C467.453 164.343 467.257 163.251 467.257 162C467.257 160.768 467.453 159.713 467.845 158.836C468.255 157.94 468.787 157.212 469.441 156.652C470.094 156.073 470.841 155.653 471.681 155.392C472.521 155.112 473.379 154.972 474.257 154.972C475.246 154.972 476.142 155.121 476.945 155.42C477.766 155.719 478.466 156.129 479.045 156.652C479.642 157.175 480.099 157.8 480.417 158.528C480.753 159.256 480.921 160.049 480.921 160.908C480.921 161.543 480.743 162.028 480.389 162.364C480.034 162.7 479.539 162.915 478.905 163.008L471.989 164.044C472.194 164.66 472.614 165.127 473.249 165.444C473.883 165.743 474.611 165.892 475.433 165.892C476.198 165.892 476.917 165.799 477.589 165.612C478.279 165.407 478.839 165.173 479.269 164.912C479.567 165.099 479.819 165.36 480.025 165.696C480.23 166.032 480.333 166.387 480.333 166.76C480.333 167.6 479.941 168.225 479.157 168.636C478.559 168.953 477.887 169.168 477.141 169.28C476.394 169.392 475.694 169.448 475.041 169.448ZM474.257 158.444C473.809 158.444 473.417 158.519 473.081 158.668C472.763 158.817 472.502 159.013 472.297 159.256C472.091 159.48 471.933 159.741 471.821 160.04C471.727 160.32 471.671 160.609 471.653 160.908L476.441 160.124C476.385 159.751 476.179 159.377 475.825 159.004C475.47 158.631 474.947 158.444 474.257 158.444ZM488.532 164.324C488.532 164.809 488.681 165.155 488.98 165.36C489.297 165.565 489.736 165.668 490.296 165.668C490.576 165.668 490.865 165.649 491.164 165.612C491.463 165.556 491.724 165.491 491.948 165.416C492.116 165.621 492.256 165.855 492.368 166.116C492.499 166.359 492.564 166.657 492.564 167.012C492.564 167.721 492.293 168.3 491.752 168.748C491.229 169.196 490.296 169.42 488.952 169.42C487.309 169.42 486.04 169.047 485.144 168.3C484.267 167.553 483.828 166.34 483.828 164.66V152.676C484.033 152.62 484.323 152.564 484.696 152.508C485.088 152.433 485.499 152.396 485.928 152.396C486.749 152.396 487.384 152.545 487.832 152.844C488.299 153.124 488.532 153.731 488.532 154.664V156.456H492.2C492.312 156.661 492.415 156.923 492.508 157.24C492.62 157.539 492.676 157.875 492.676 158.248C492.676 158.901 492.527 159.377 492.228 159.676C491.948 159.956 491.565 160.096 491.08 160.096H488.532V164.324ZM495.543 155.588C495.73 155.532 496.019 155.476 496.411 155.42C496.822 155.364 497.242 155.336 497.671 155.336C498.082 155.336 498.446 155.364 498.763 155.42C499.099 155.476 499.379 155.588 499.603 155.756C499.827 155.924 499.995 156.157 500.107 156.456C500.238 156.736 500.303 157.109 500.303 157.576V163.596C500.303 164.361 500.49 164.912 500.863 165.248C501.236 165.565 501.778 165.724 502.487 165.724C502.916 165.724 503.262 165.687 503.523 165.612C503.803 165.537 504.018 165.463 504.167 165.388V155.588C504.354 155.532 504.643 155.476 505.035 155.42C505.446 155.364 505.866 155.336 506.295 155.336C506.706 155.336 507.07 155.364 507.387 155.42C507.723 155.476 508.003 155.588 508.227 155.756C508.451 155.924 508.619 156.157 508.731 156.456C508.862 156.736 508.927 157.109 508.927 157.576V166.088C508.927 167.021 508.535 167.721 507.751 168.188C507.098 168.599 506.314 168.907 505.399 169.112C504.503 169.336 503.523 169.448 502.459 169.448C501.451 169.448 500.518 169.336 499.659 169.112C498.819 168.888 498.091 168.543 497.475 168.076C496.859 167.609 496.383 167.012 496.047 166.284C495.711 165.537 495.543 164.641 495.543 163.596V155.588ZM518.224 165.976C518.541 165.976 518.886 165.948 519.26 165.892C519.652 165.817 519.941 165.724 520.128 165.612V163.372L518.112 163.54C517.589 163.577 517.16 163.689 516.824 163.876C516.488 164.063 516.32 164.343 516.32 164.716C516.32 165.089 516.46 165.397 516.74 165.64C517.038 165.864 517.533 165.976 518.224 165.976ZM518 154.972C519.008 154.972 519.922 155.075 520.744 155.28C521.584 155.485 522.293 155.803 522.872 156.232C523.469 156.643 523.926 157.175 524.244 157.828C524.561 158.463 524.72 159.219 524.72 160.096V166.368C524.72 166.853 524.58 167.255 524.3 167.572C524.038 167.871 523.721 168.132 523.348 168.356C522.134 169.084 520.426 169.448 518.224 169.448C517.234 169.448 516.338 169.355 515.536 169.168C514.752 168.981 514.07 168.701 513.492 168.328C512.932 167.955 512.493 167.479 512.176 166.9C511.877 166.321 511.728 165.649 511.728 164.884C511.728 163.596 512.11 162.607 512.876 161.916C513.641 161.225 514.826 160.796 516.432 160.628L520.1 160.236V160.04C520.1 159.499 519.857 159.116 519.372 158.892C518.905 158.649 518.224 158.528 517.328 158.528C516.618 158.528 515.928 158.603 515.256 158.752C514.584 158.901 513.977 159.088 513.436 159.312C513.193 159.144 512.988 158.892 512.82 158.556C512.652 158.201 512.568 157.837 512.568 157.464C512.568 156.979 512.68 156.596 512.904 156.316C513.146 156.017 513.51 155.765 513.996 155.56C514.537 155.355 515.172 155.205 515.9 155.112C516.646 155.019 517.346 154.972 518 154.972ZM539.592 165.36C539.797 165.397 540.049 165.435 540.348 165.472C540.646 165.491 540.926 165.5 541.188 165.5C541.822 165.5 542.401 165.407 542.924 165.22C543.465 165.033 543.922 164.744 544.296 164.352C544.688 163.96 544.986 163.456 545.192 162.84C545.416 162.205 545.528 161.449 545.528 160.572C545.528 158.892 545.136 157.632 544.352 156.792C543.568 155.933 542.522 155.504 541.216 155.504C540.954 155.504 540.684 155.513 540.404 155.532C540.142 155.551 539.872 155.579 539.592 155.616V165.36ZM541.16 169.448C540.842 169.448 540.478 169.439 540.068 169.42C539.657 169.401 539.228 169.364 538.78 169.308C538.35 169.252 537.912 169.177 537.464 169.084C537.034 169.009 536.633 168.897 536.26 168.748C535.233 168.356 534.72 167.675 534.72 166.704V153.628C534.72 153.236 534.822 152.937 535.028 152.732C535.252 152.508 535.55 152.331 535.924 152.2C536.726 151.939 537.576 151.771 538.472 151.696C539.368 151.603 540.17 151.556 540.88 151.556C542.336 151.556 543.652 151.733 544.828 152.088C546.022 152.443 547.04 152.993 547.88 153.74C548.738 154.468 549.401 155.392 549.868 156.512C550.334 157.632 550.568 158.957 550.568 160.488C550.568 161.981 550.344 163.288 549.896 164.408C549.448 165.509 548.804 166.443 547.964 167.208C547.142 167.955 546.153 168.515 544.996 168.888C543.838 169.261 542.56 169.448 541.16 169.448ZM560.284 159.9C561.068 159.9 561.665 159.723 562.076 159.368C562.505 158.995 562.72 158.435 562.72 157.688C562.72 156.979 562.496 156.437 562.048 156.064C561.619 155.672 560.984 155.476 560.144 155.476C559.845 155.476 559.593 155.485 559.388 155.504C559.201 155.504 559.005 155.523 558.8 155.56V159.9H560.284ZM558.828 168.888C558.623 168.944 558.296 169 557.848 169.056C557.419 169.112 556.989 169.14 556.56 169.14C556.131 169.14 555.748 169.103 555.412 169.028C555.095 168.972 554.824 168.86 554.6 168.692C554.376 168.524 554.208 168.291 554.096 167.992C553.984 167.693 553.928 167.301 553.928 166.816V153.628C553.928 153.236 554.031 152.937 554.236 152.732C554.46 152.508 554.759 152.331 555.132 152.2C555.767 151.976 556.485 151.817 557.288 151.724C558.109 151.612 558.931 151.556 559.752 151.556C562.328 151.556 564.297 152.107 565.66 153.208C567.023 154.309 567.704 155.803 567.704 157.688C567.704 158.603 567.555 159.433 567.256 160.18C566.976 160.908 566.547 161.543 565.968 162.084C565.408 162.607 564.689 163.017 563.812 163.316C562.953 163.596 561.955 163.736 560.816 163.736H558.828V168.888Z" fill="#262626"/>
<rect x="1" y="366" width="94" height="42" rx="15" stroke="#404040" stroke-width="2"/>
<path d="M21.64 392C21.864 392.064 22.152 392.112 22.504 392.144C22.856 392.16 23.192 392.168 23.512 392.168C24.152 392.168 24.68 392.04 25.096 391.784C25.528 391.512 25.744 391.096 25.744 390.536C25.744 390.008 25.568 389.632 25.216 389.408C24.864 389.184 24.328 389.072 23.608 389.072H21.64V392ZM21.64 386.144H23.392C24.08 386.144 24.576 386.016 24.88 385.76C25.2 385.504 25.36 385.128 25.36 384.632C25.36 384.2 25.176 383.856 24.808 383.6C24.456 383.344 23.92 383.216 23.2 383.216C22.96 383.216 22.68 383.224 22.36 383.24C22.056 383.256 21.816 383.28 21.64 383.312V386.144ZM23.2 395.384C22.928 395.384 22.608 395.376 22.24 395.36C21.872 395.344 21.488 395.312 21.088 395.264C20.704 395.216 20.32 395.152 19.936 395.072C19.552 395.008 19.2 394.912 18.88 394.784C18 394.448 17.56 393.864 17.56 393.032V381.824C17.56 381.488 17.648 381.232 17.824 381.056C18.016 380.864 18.272 380.712 18.592 380.6C19.136 380.408 19.816 380.272 20.632 380.192C21.448 380.096 22.288 380.048 23.152 380.048C25.2 380.048 26.776 380.392 27.88 381.08C28.984 381.768 29.536 382.832 29.536 384.272C29.536 384.992 29.328 385.616 28.912 386.144C28.496 386.656 27.936 387.032 27.232 387.272C28.032 387.496 28.696 387.904 29.224 388.496C29.768 389.088 30.04 389.832 30.04 390.728C30.04 392.312 29.448 393.488 28.264 394.256C27.096 395.008 25.408 395.384 23.2 395.384ZM37.5794 392.408C37.8514 392.408 38.1474 392.384 38.4674 392.336C38.8034 392.272 39.0514 392.192 39.2114 392.096V390.176L37.4834 390.32C37.0354 390.352 36.6674 390.448 36.3794 390.608C36.0914 390.768 35.9474 391.008 35.9474 391.328C35.9474 391.648 36.0674 391.912 36.3074 392.12C36.5634 392.312 36.9874 392.408 37.5794 392.408ZM37.3874 382.976C38.2514 382.976 39.0354 383.064 39.7394 383.24C40.4594 383.416 41.0674 383.688 41.5634 384.056C42.0754 384.408 42.4674 384.864 42.7394 385.424C43.0114 385.968 43.1474 386.616 43.1474 387.368V392.744C43.1474 393.16 43.0274 393.504 42.7874 393.776C42.5634 394.032 42.2914 394.256 41.9714 394.448C40.9314 395.072 39.4674 395.384 37.5794 395.384C36.7314 395.384 35.9634 395.304 35.2754 395.144C34.6034 394.984 34.0194 394.744 33.5234 394.424C33.0434 394.104 32.6674 393.696 32.3954 393.2C32.1394 392.704 32.0114 392.128 32.0114 391.472C32.0114 390.368 32.3394 389.52 32.9954 388.928C33.6514 388.336 34.6674 387.968 36.0434 387.824L39.1874 387.488V387.32C39.1874 386.856 38.9794 386.528 38.5634 386.336C38.1634 386.128 37.5794 386.024 36.8114 386.024C36.2034 386.024 35.6114 386.088 35.0354 386.216C34.4594 386.344 33.9394 386.504 33.4754 386.696C33.2674 386.552 33.0914 386.336 32.9474 386.048C32.8034 385.744 32.7314 385.432 32.7314 385.112C32.7314 384.696 32.8274 384.368 33.0194 384.128C33.2274 383.872 33.5394 383.656 33.9554 383.48C34.4194 383.304 34.9634 383.176 35.5874 383.096C36.2274 383.016 36.8274 382.976 37.3874 382.976ZM50.2741 394.976C50.0981 395.008 49.8341 395.048 49.4821 395.096C49.1461 395.16 48.8021 395.192 48.4501 395.192C48.0981 395.192 47.7781 395.168 47.4901 395.12C47.2181 395.072 46.9861 394.976 46.7941 394.832C46.6021 394.688 46.4501 394.496 46.3381 394.256C46.2421 394 46.1941 393.672 46.1941 393.272V379.352C46.3701 379.32 46.6261 379.28 46.9621 379.232C47.3141 379.168 47.6661 379.136 48.0181 379.136C48.3701 379.136 48.6821 379.16 48.9541 379.208C49.2421 379.256 49.4821 379.352 49.6741 379.496C49.8661 379.64 50.0101 379.84 50.1061 380.096C50.2181 380.336 50.2741 380.656 50.2741 381.056V394.976ZM59.4966 395.384C58.5526 395.384 57.6726 395.256 56.8566 395C56.0566 394.728 55.3526 394.328 54.7446 393.8C54.1526 393.272 53.6806 392.608 53.3286 391.808C52.9926 391.008 52.8246 390.072 52.8246 389C52.8246 387.944 52.9926 387.04 53.3286 386.288C53.6806 385.52 54.1366 384.896 54.6966 384.416C55.2566 383.92 55.8966 383.56 56.6166 383.336C57.3366 383.096 58.0726 382.976 58.8246 382.976C59.6726 382.976 60.4406 383.104 61.1286 383.36C61.8326 383.616 62.4326 383.968 62.9286 384.416C63.4406 384.864 63.8326 385.4 64.1046 386.024C64.3926 386.648 64.5366 387.328 64.5366 388.064C64.5366 388.608 64.3846 389.024 64.0806 389.312C63.7766 389.6 63.3526 389.784 62.8086 389.864L56.8806 390.752C57.0566 391.28 57.4166 391.68 57.9606 391.952C58.5046 392.208 59.1286 392.336 59.8326 392.336C60.4886 392.336 61.1046 392.256 61.6806 392.096C62.2726 391.92 62.7526 391.72 63.1206 391.496C63.3766 391.656 63.5926 391.88 63.7686 392.168C63.9446 392.456 64.0326 392.76 64.0326 393.08C64.0326 393.8 63.6966 394.336 63.0246 394.688C62.5126 394.96 61.9366 395.144 61.2966 395.24C60.6566 395.336 60.0566 395.384 59.4966 395.384ZM58.8246 385.952C58.4406 385.952 58.1046 386.016 57.8166 386.144C57.5446 386.272 57.3206 386.44 57.1446 386.648C56.9686 386.84 56.8326 387.064 56.7366 387.32C56.6566 387.56 56.6086 387.808 56.5926 388.064L60.6966 387.392C60.6486 387.072 60.4726 386.752 60.1686 386.432C59.8646 386.112 59.4166 385.952 58.8246 385.952ZM72.6685 382.976C73.5805 382.976 74.4045 383.096 75.1405 383.336C75.8925 383.56 76.5245 383.856 77.0365 384.224C77.3565 384.448 77.6045 384.696 77.7805 384.968C77.9725 385.24 78.0685 385.592 78.0685 386.024V394.424C78.0685 395.272 77.9085 396 77.5885 396.608C77.2685 397.232 76.8285 397.744 76.2685 398.144C75.7245 398.56 75.0765 398.864 74.3245 399.056C73.5885 399.248 72.7965 399.344 71.9485 399.344C70.4925 399.344 69.3485 399.144 68.5165 398.744C67.6845 398.36 67.2685 397.728 67.2685 396.848C67.2685 396.48 67.3405 396.152 67.4845 395.864C67.6445 395.592 67.8205 395.384 68.0125 395.24C68.4765 395.496 68.9965 395.712 69.5725 395.888C70.1645 396.064 70.7725 396.152 71.3965 396.152C72.2605 396.152 72.9485 396.008 73.4605 395.72C73.9725 395.432 74.2285 394.968 74.2285 394.328V393.944C73.5725 394.232 72.7725 394.376 71.8285 394.376C71.1085 394.376 70.4205 394.272 69.7645 394.064C69.1245 393.84 68.5565 393.504 68.0605 393.056C67.5805 392.592 67.1885 392 66.8845 391.28C66.5965 390.56 66.4525 389.704 66.4525 388.712C66.4525 387.736 66.6045 386.888 66.9085 386.168C67.2285 385.448 67.6605 384.856 68.2045 384.392C68.7645 383.912 69.4205 383.56 70.1725 383.336C70.9405 383.096 71.7725 382.976 72.6685 382.976ZM74.1565 386.456C74.0445 386.392 73.8765 386.328 73.6525 386.264C73.4445 386.2 73.1805 386.168 72.8605 386.168C72.0765 386.168 71.4845 386.392 71.0845 386.84C70.7005 387.272 70.5085 387.896 70.5085 388.712C70.5085 389.64 70.7005 390.312 71.0845 390.728C71.4845 391.128 71.9885 391.328 72.5965 391.328C73.2525 391.328 73.7725 391.176 74.1565 390.872V386.456Z" fill="#262626"/>
<rect x="158" y="366" width="80" height="42" rx="15" stroke="#404040" stroke-width="2"/>
<path d="M178.64 392C178.864 392.064 179.152 392.112 179.504 392.144C179.856 392.16 180.192 392.168 180.512 392.168C181.152 392.168 181.68 392.04 182.096 391.784C182.528 391.512 182.744 391.096 182.744 390.536C182.744 390.008 182.568 389.632 182.216 389.408C181.864 389.184 181.328 389.072 180.608 389.072H178.64V392ZM178.64 386.144H180.392C181.08 386.144 181.576 386.016 181.88 385.76C182.2 385.504 182.36 385.128 182.36 384.632C182.36 384.2 182.176 383.856 181.808 383.6C181.456 383.344 180.92 383.216 180.2 383.216C179.96 383.216 179.68 383.224 179.36 383.24C179.056 383.256 178.816 383.28 178.64 383.312V386.144ZM180.2 395.384C179.928 395.384 179.608 395.376 179.24 395.36C178.872 395.344 178.488 395.312 178.088 395.264C177.704 395.216 177.32 395.152 176.936 395.072C176.552 395.008 176.2 394.912 175.88 394.784C175 394.448 174.56 393.864 174.56 393.032V381.824C174.56 381.488 174.648 381.232 174.824 381.056C175.016 380.864 175.272 380.712 175.592 380.6C176.136 380.408 176.816 380.272 177.632 380.192C178.448 380.096 179.288 380.048 180.152 380.048C182.2 380.048 183.776 380.392 184.88 381.08C185.984 381.768 186.536 382.832 186.536 384.272C186.536 384.992 186.328 385.616 185.912 386.144C185.496 386.656 184.936 387.032 184.232 387.272C185.032 387.496 185.696 387.904 186.224 388.496C186.768 389.088 187.04 389.832 187.04 390.728C187.04 392.312 186.448 393.488 185.264 394.256C184.096 395.008 182.408 395.384 180.2 395.384ZM189.47 383.504C189.63 383.456 189.878 383.408 190.214 383.36C190.566 383.312 190.926 383.288 191.294 383.288C191.646 383.288 191.958 383.312 192.23 383.36C192.518 383.408 192.758 383.504 192.95 383.648C193.142 383.792 193.286 383.992 193.382 384.248C193.494 384.488 193.55 384.808 193.55 385.208V390.368C193.55 391.024 193.71 391.496 194.03 391.784C194.35 392.056 194.814 392.192 195.422 392.192C195.79 392.192 196.086 392.16 196.31 392.096C196.55 392.032 196.734 391.968 196.862 391.904V383.504C197.022 383.456 197.27 383.408 197.606 383.36C197.958 383.312 198.318 383.288 198.686 383.288C199.038 383.288 199.35 383.312 199.622 383.36C199.91 383.408 200.15 383.504 200.342 383.648C200.534 383.792 200.678 383.992 200.774 384.248C200.886 384.488 200.942 384.808 200.942 385.208V392.504C200.942 393.304 200.606 393.904 199.934 394.304C199.374 394.656 198.702 394.92 197.918 395.096C197.15 395.288 196.31 395.384 195.398 395.384C194.534 395.384 193.734 395.288 192.998 395.096C192.278 394.904 191.654 394.608 191.126 394.208C190.598 393.808 190.19 393.296 189.902 392.672C189.614 392.032 189.47 391.264 189.47 390.368V383.504ZM207.999 394.976C207.839 395.024 207.583 395.072 207.231 395.12C206.895 395.168 206.543 395.192 206.175 395.192C205.823 395.192 205.503 395.168 205.215 395.12C204.943 395.072 204.711 394.976 204.519 394.832C204.327 394.688 204.175 394.496 204.063 394.256C203.967 394 203.919 393.672 203.919 393.272V386.072C203.919 385.704 203.983 385.392 204.111 385.136C204.255 384.864 204.455 384.624 204.711 384.416C204.967 384.208 205.279 384.024 205.647 383.864C206.031 383.688 206.439 383.536 206.871 383.408C207.303 383.28 207.751 383.184 208.215 383.12C208.679 383.04 209.143 383 209.607 383C210.375 383 210.983 383.152 211.431 383.456C211.879 383.744 212.103 384.224 212.103 384.896C212.103 385.12 212.071 385.344 212.007 385.568C211.943 385.776 211.863 385.968 211.767 386.144C211.431 386.144 211.087 386.16 210.735 386.192C210.383 386.224 210.039 386.272 209.703 386.336C209.367 386.4 209.047 386.472 208.743 386.552C208.455 386.616 208.207 386.696 207.999 386.792V394.976ZM218.346 390.992C218.346 391.408 218.474 391.704 218.73 391.88C219.002 392.056 219.378 392.144 219.858 392.144C220.098 392.144 220.346 392.128 220.602 392.096C220.858 392.048 221.082 391.992 221.274 391.928C221.418 392.104 221.538 392.304 221.634 392.528C221.746 392.736 221.802 392.992 221.802 393.296C221.802 393.904 221.57 394.4 221.106 394.784C220.658 395.168 219.858 395.36 218.706 395.36C217.298 395.36 216.21 395.04 215.442 394.4C214.69 393.76 214.314 392.72 214.314 391.28V381.008C214.49 380.96 214.738 380.912 215.058 380.864C215.394 380.8 215.746 380.768 216.114 380.768C216.818 380.768 217.362 380.896 217.746 381.152C218.146 381.392 218.346 381.912 218.346 382.712V384.248H221.49C221.586 384.424 221.674 384.648 221.754 384.92C221.85 385.176 221.898 385.464 221.898 385.784C221.898 386.344 221.77 386.752 221.514 387.008C221.274 387.248 220.946 387.368 220.53 387.368H218.346V390.992Z" fill="#262626"/>
<rect x="131" y="253" width="148" height="42" rx="15" stroke="#404040" stroke-width="2"/>
<path d="M151.688 276.216C150.984 275.976 150.344 275.736 149.768 275.496C149.192 275.24 148.696 274.936 148.28 274.584C147.864 274.232 147.536 273.816 147.296 273.336C147.072 272.84 146.96 272.24 146.96 271.536C146.96 270.176 147.48 269.088 148.52 268.272C149.576 267.456 151.048 267.048 152.936 267.048C153.624 267.048 154.264 267.096 154.856 267.192C155.448 267.288 155.952 267.44 156.368 267.648C156.8 267.84 157.136 268.096 157.376 268.416C157.616 268.72 157.736 269.08 157.736 269.496C157.736 269.912 157.64 270.272 157.448 270.576C157.256 270.864 157.024 271.112 156.752 271.32C156.4 271.096 155.928 270.904 155.336 270.744C154.744 270.568 154.096 270.48 153.392 270.48C152.672 270.48 152.144 270.584 151.808 270.792C151.472 270.984 151.304 271.232 151.304 271.536C151.304 271.776 151.408 271.976 151.616 272.136C151.824 272.28 152.136 272.416 152.552 272.544L153.824 272.952C155.328 273.432 156.48 274.048 157.28 274.8C158.096 275.536 158.504 276.544 158.504 277.824C158.504 279.184 157.968 280.288 156.896 281.136C155.824 281.968 154.248 282.384 152.168 282.384C151.432 282.384 150.744 282.32 150.104 282.192C149.48 282.08 148.928 281.912 148.448 281.688C147.984 281.448 147.616 281.16 147.344 280.824C147.088 280.472 146.96 280.072 146.96 279.624C146.96 279.16 147.096 278.768 147.368 278.448C147.64 278.112 147.936 277.856 148.256 277.68C148.704 278.032 149.248 278.336 149.888 278.592C150.544 278.848 151.256 278.976 152.024 278.976C152.808 278.976 153.36 278.856 153.68 278.616C154 278.376 154.16 278.096 154.16 277.776C154.16 277.456 154.032 277.216 153.776 277.056C153.52 276.88 153.16 276.712 152.696 276.552L151.688 276.216ZM167.162 282.384C166.218 282.384 165.338 282.256 164.522 282C163.722 281.728 163.018 281.328 162.41 280.8C161.818 280.272 161.346 279.608 160.994 278.808C160.658 278.008 160.49 277.072 160.49 276C160.49 274.944 160.658 274.04 160.994 273.288C161.346 272.52 161.802 271.896 162.362 271.416C162.922 270.92 163.562 270.56 164.282 270.336C165.002 270.096 165.738 269.976 166.49 269.976C167.338 269.976 168.106 270.104 168.794 270.36C169.498 270.616 170.098 270.968 170.594 271.416C171.106 271.864 171.498 272.4 171.77 273.024C172.058 273.648 172.202 274.328 172.202 275.064C172.202 275.608 172.05 276.024 171.746 276.312C171.442 276.6 171.018 276.784 170.474 276.864L164.546 277.752C164.722 278.28 165.082 278.68 165.626 278.952C166.17 279.208 166.794 279.336 167.498 279.336C168.154 279.336 168.77 279.256 169.346 279.096C169.938 278.92 170.418 278.72 170.786 278.496C171.042 278.656 171.258 278.88 171.434 279.168C171.61 279.456 171.698 279.76 171.698 280.08C171.698 280.8 171.362 281.336 170.69 281.688C170.178 281.96 169.602 282.144 168.962 282.24C168.322 282.336 167.722 282.384 167.162 282.384ZM166.49 272.952C166.106 272.952 165.77 273.016 165.482 273.144C165.21 273.272 164.986 273.44 164.81 273.648C164.634 273.84 164.498 274.064 164.402 274.32C164.322 274.56 164.274 274.808 164.258 275.064L168.362 274.392C168.314 274.072 168.138 273.752 167.834 273.432C167.53 273.112 167.082 272.952 166.49 272.952ZM186.045 279.888C185.965 280.64 185.741 281.216 185.373 281.616C185.021 282.016 184.501 282.216 183.813 282.216C183.301 282.216 182.845 282.096 182.445 281.856C182.045 281.6 181.613 281.176 181.149 280.584L178.773 277.608V281.976C178.597 282.008 178.333 282.048 177.981 282.096C177.645 282.16 177.301 282.192 176.949 282.192C176.597 282.192 176.277 282.168 175.989 282.12C175.717 282.072 175.485 281.976 175.293 281.832C175.101 281.688 174.949 281.496 174.837 281.256C174.741 281 174.693 280.672 174.693 280.272V266.376C174.869 266.328 175.125 266.28 175.461 266.232C175.813 266.168 176.165 266.136 176.517 266.136C176.869 266.136 177.181 266.16 177.453 266.208C177.741 266.256 177.981 266.352 178.173 266.496C178.365 266.64 178.509 266.84 178.605 267.096C178.717 267.336 178.773 267.656 178.773 268.056V274.392L182.901 270.168C183.733 270.168 184.397 270.352 184.893 270.72C185.405 271.088 185.661 271.552 185.661 272.112C185.661 272.352 185.622 272.576 185.542 272.784C185.462 272.976 185.333 273.176 185.157 273.384C184.997 273.592 184.781 273.816 184.509 274.056C184.253 274.28 183.949 274.544 183.597 274.848L182.205 276.048L186.045 279.888ZM192.518 281.976C192.358 282.024 192.102 282.072 191.75 282.12C191.414 282.168 191.062 282.192 190.694 282.192C190.342 282.192 190.022 282.168 189.734 282.12C189.462 282.072 189.23 281.976 189.038 281.832C188.846 281.688 188.694 281.496 188.582 281.256C188.486 281 188.438 280.672 188.438 280.272V273.072C188.438 272.704 188.502 272.392 188.63 272.136C188.774 271.864 188.974 271.624 189.23 271.416C189.486 271.208 189.798 271.024 190.166 270.864C190.55 270.688 190.958 270.536 191.39 270.408C191.822 270.28 192.27 270.184 192.734 270.12C193.198 270.04 193.662 270 194.126 270C194.894 270 195.502 270.152 195.95 270.456C196.398 270.744 196.622 271.224 196.622 271.896C196.622 272.12 196.59 272.344 196.526 272.568C196.462 272.776 196.382 272.968 196.286 273.144C195.95 273.144 195.606 273.16 195.254 273.192C194.902 273.224 194.558 273.272 194.222 273.336C193.886 273.4 193.566 273.472 193.262 273.552C192.974 273.616 192.726 273.696 192.518 273.792V281.976ZM204.508 282.384C203.564 282.384 202.684 282.256 201.868 282C201.068 281.728 200.364 281.328 199.756 280.8C199.164 280.272 198.692 279.608 198.34 278.808C198.004 278.008 197.836 277.072 197.836 276C197.836 274.944 198.004 274.04 198.34 273.288C198.692 272.52 199.148 271.896 199.708 271.416C200.268 270.92 200.908 270.56 201.628 270.336C202.348 270.096 203.084 269.976 203.836 269.976C204.684 269.976 205.452 270.104 206.14 270.36C206.844 270.616 207.444 270.968 207.94 271.416C208.452 271.864 208.844 272.4 209.116 273.024C209.404 273.648 209.548 274.328 209.548 275.064C209.548 275.608 209.396 276.024 209.092 276.312C208.788 276.6 208.364 276.784 207.82 276.864L201.892 277.752C202.068 278.28 202.428 278.68 202.972 278.952C203.516 279.208 204.14 279.336 204.844 279.336C205.5 279.336 206.116 279.256 206.692 279.096C207.284 278.92 207.764 278.72 208.132 278.496C208.388 278.656 208.604 278.88 208.78 279.168C208.956 279.456 209.044 279.76 209.044 280.08C209.044 280.8 208.708 281.336 208.036 281.688C207.524 281.96 206.948 282.144 206.308 282.24C205.668 282.336 205.068 282.384 204.508 282.384ZM203.836 272.952C203.452 272.952 203.116 273.016 202.828 273.144C202.556 273.272 202.332 273.44 202.156 273.648C201.98 273.84 201.844 274.064 201.748 274.32C201.668 274.56 201.62 274.808 201.604 275.064L205.708 274.392C205.66 274.072 205.484 273.752 205.18 273.432C204.876 273.112 204.428 272.952 203.836 272.952ZM216.072 277.992C216.072 278.408 216.2 278.704 216.456 278.88C216.728 279.056 217.104 279.144 217.584 279.144C217.824 279.144 218.072 279.128 218.328 279.096C218.584 279.048 218.808 278.992 219 278.928C219.144 279.104 219.264 279.304 219.36 279.528C219.472 279.736 219.528 279.992 219.528 280.296C219.528 280.904 219.296 281.4 218.832 281.784C218.384 282.168 217.584 282.36 216.432 282.36C215.024 282.36 213.936 282.04 213.168 281.4C212.416 280.76 212.04 279.72 212.04 278.28V268.008C212.216 267.96 212.464 267.912 212.784 267.864C213.12 267.8 213.472 267.768 213.84 267.768C214.544 267.768 215.088 267.896 215.472 268.152C215.872 268.392 216.072 268.912 216.072 269.712V271.248H219.216C219.312 271.424 219.4 271.648 219.48 271.92C219.576 272.176 219.624 272.464 219.624 272.784C219.624 273.344 219.496 273.752 219.24 274.008C219 274.248 218.672 274.368 218.256 274.368H216.072V277.992ZM227.073 279.408C227.345 279.408 227.641 279.384 227.961 279.336C228.297 279.272 228.545 279.192 228.705 279.096V277.176L226.977 277.32C226.529 277.352 226.161 277.448 225.873 277.608C225.585 277.768 225.441 278.008 225.441 278.328C225.441 278.648 225.561 278.912 225.801 279.12C226.057 279.312 226.481 279.408 227.073 279.408ZM226.881 269.976C227.745 269.976 228.529 270.064 229.233 270.24C229.953 270.416 230.561 270.688 231.057 271.056C231.569 271.408 231.961 271.864 232.233 272.424C232.505 272.968 232.641 273.616 232.641 274.368V279.744C232.641 280.16 232.521 280.504 232.281 280.776C232.057 281.032 231.785 281.256 231.465 281.448C230.425 282.072 228.961 282.384 227.073 282.384C226.225 282.384 225.457 282.304 224.769 282.144C224.097 281.984 223.513 281.744 223.017 281.424C222.537 281.104 222.161 280.696 221.889 280.2C221.633 279.704 221.505 279.128 221.505 278.472C221.505 277.368 221.833 276.52 222.489 275.928C223.145 275.336 224.161 274.968 225.537 274.824L228.681 274.488V274.32C228.681 273.856 228.473 273.528 228.057 273.336C227.657 273.128 227.073 273.024 226.305 273.024C225.697 273.024 225.105 273.088 224.529 273.216C223.953 273.344 223.433 273.504 222.969 273.696C222.761 273.552 222.585 273.336 222.441 273.048C222.297 272.744 222.225 272.432 222.225 272.112C222.225 271.696 222.321 271.368 222.513 271.128C222.721 270.872 223.033 270.656 223.449 270.48C223.913 270.304 224.457 270.176 225.081 270.096C225.721 270.016 226.321 269.976 226.881 269.976ZM239.696 281.976C239.536 282.024 239.28 282.072 238.928 282.12C238.592 282.168 238.24 282.192 237.872 282.192C237.52 282.192 237.2 282.168 236.912 282.12C236.64 282.072 236.408 281.976 236.216 281.832C236.024 281.688 235.872 281.496 235.76 281.256C235.664 281 235.616 280.672 235.616 280.272V273.072C235.616 272.704 235.68 272.392 235.808 272.136C235.952 271.864 236.152 271.624 236.408 271.416C236.664 271.208 236.976 271.024 237.344 270.864C237.728 270.688 238.136 270.536 238.568 270.408C239 270.28 239.448 270.184 239.912 270.12C240.376 270.04 240.84 270 241.304 270C242.072 270 242.68 270.152 243.128 270.456C243.576 270.744 243.8 271.224 243.8 271.896C243.8 272.12 243.768 272.344 243.704 272.568C243.64 272.776 243.56 272.968 243.464 273.144C243.128 273.144 242.784 273.16 242.432 273.192C242.08 273.224 241.736 273.272 241.4 273.336C241.064 273.4 240.744 273.472 240.44 273.552C240.152 273.616 239.904 273.696 239.696 273.792V281.976ZM245.867 267.096C245.867 266.488 246.067 265.976 246.467 265.56C246.883 265.144 247.427 264.936 248.099 264.936C248.771 264.936 249.307 265.144 249.707 265.56C250.123 265.976 250.331 266.488 250.331 267.096C250.331 267.704 250.123 268.216 249.707 268.632C249.307 269.048 248.771 269.256 248.099 269.256C247.427 269.256 246.883 269.048 246.467 268.632C246.067 268.216 245.867 267.704 245.867 267.096ZM250.139 281.976C249.963 282.008 249.699 282.048 249.347 282.096C249.011 282.16 248.667 282.192 248.315 282.192C247.963 282.192 247.643 282.168 247.355 282.12C247.083 282.072 246.851 281.976 246.659 281.832C246.467 281.688 246.315 281.496 246.203 281.256C246.107 281 246.059 280.672 246.059 280.272V270.504C246.235 270.472 246.491 270.432 246.827 270.384C247.179 270.32 247.531 270.288 247.883 270.288C248.235 270.288 248.547 270.312 248.819 270.36C249.107 270.408 249.347 270.504 249.539 270.648C249.731 270.792 249.875 270.992 249.971 271.248C250.083 271.488 250.139 271.808 250.139 272.208V281.976ZM263.056 278.52C263.056 279.736 262.6 280.688 261.688 281.376C260.776 282.064 259.432 282.408 257.656 282.408C256.984 282.408 256.36 282.36 255.784 282.264C255.208 282.168 254.712 282.024 254.296 281.832C253.896 281.624 253.576 281.368 253.336 281.064C253.112 280.76 253 280.4 253 279.984C253 279.6 253.08 279.28 253.24 279.024C253.4 278.752 253.592 278.528 253.816 278.352C254.28 278.608 254.808 278.84 255.4 279.048C256.008 279.24 256.704 279.336 257.488 279.336C257.984 279.336 258.36 279.264 258.616 279.12C258.888 278.976 259.024 278.784 259.024 278.544C259.024 278.32 258.928 278.144 258.736 278.016C258.544 277.888 258.224 277.784 257.776 277.704L257.056 277.56C255.664 277.288 254.624 276.864 253.936 276.288C253.264 275.696 252.928 274.856 252.928 273.768C252.928 273.176 253.056 272.64 253.312 272.16C253.568 271.68 253.928 271.28 254.392 270.96C254.856 270.64 255.408 270.392 256.048 270.216C256.704 270.04 257.424 269.952 258.208 269.952C258.8 269.952 259.352 270 259.864 270.096C260.392 270.176 260.848 270.304 261.232 270.48C261.616 270.656 261.92 270.888 262.144 271.176C262.368 271.448 262.48 271.776 262.48 272.16C262.48 272.528 262.408 272.848 262.264 273.12C262.136 273.376 261.968 273.592 261.76 273.768C261.632 273.688 261.44 273.608 261.184 273.528C260.928 273.432 260.648 273.352 260.344 273.288C260.04 273.208 259.728 273.144 259.408 273.096C259.104 273.048 258.824 273.024 258.568 273.024C258.04 273.024 257.632 273.088 257.344 273.216C257.056 273.328 256.912 273.512 256.912 273.768C256.912 273.944 256.992 274.088 257.152 274.2C257.312 274.312 257.616 274.416 258.064 274.512L258.808 274.68C260.344 275.032 261.432 275.52 262.072 276.144C262.728 276.752 263.056 277.544 263.056 278.52Z" fill="#262626"/>
<rect x="333" y="253" width="153" height="42" rx="15" stroke="#404040" stroke-width="2"/>
<path d="M353.64 279C353.864 279.064 354.152 279.112 354.504 279.144C354.856 279.16 355.192 279.168 355.512 279.168C356.152 279.168 356.68 279.04 357.096 278.784C357.528 278.512 357.744 278.096 357.744 277.536C357.744 277.008 357.568 276.632 357.216 276.408C356.864 276.184 356.328 276.072 355.608 276.072H353.64V279ZM353.64 273.144H355.392C356.08 273.144 356.576 273.016 356.88 272.76C357.2 272.504 357.36 272.128 357.36 271.632C357.36 271.2 357.176 270.856 356.808 270.6C356.456 270.344 355.92 270.216 355.2 270.216C354.96 270.216 354.68 270.224 354.36 270.24C354.056 270.256 353.816 270.28 353.64 270.312V273.144ZM355.2 282.384C354.928 282.384 354.608 282.376 354.24 282.36C353.872 282.344 353.488 282.312 353.088 282.264C352.704 282.216 352.32 282.152 351.936 282.072C351.552 282.008 351.2 281.912 350.88 281.784C350 281.448 349.56 280.864 349.56 280.032V268.824C349.56 268.488 349.648 268.232 349.824 268.056C350.016 267.864 350.272 267.712 350.592 267.6C351.136 267.408 351.816 267.272 352.632 267.192C353.448 267.096 354.288 267.048 355.152 267.048C357.2 267.048 358.776 267.392 359.88 268.08C360.984 268.768 361.536 269.832 361.536 271.272C361.536 271.992 361.328 272.616 360.912 273.144C360.496 273.656 359.936 274.032 359.232 274.272C360.032 274.496 360.696 274.904 361.224 275.496C361.768 276.088 362.04 276.832 362.04 277.728C362.04 279.312 361.448 280.488 360.264 281.256C359.096 282.008 357.408 282.384 355.2 282.384ZM370.685 282.384C369.741 282.384 368.861 282.256 368.045 282C367.245 281.728 366.541 281.328 365.933 280.8C365.341 280.272 364.869 279.608 364.517 278.808C364.181 278.008 364.013 277.072 364.013 276C364.013 274.944 364.181 274.04 364.517 273.288C364.869 272.52 365.325 271.896 365.885 271.416C366.445 270.92 367.085 270.56 367.805 270.336C368.525 270.096 369.261 269.976 370.013 269.976C370.861 269.976 371.629 270.104 372.317 270.36C373.021 270.616 373.621 270.968 374.117 271.416C374.629 271.864 375.021 272.4 375.293 273.024C375.581 273.648 375.725 274.328 375.725 275.064C375.725 275.608 375.573 276.024 375.269 276.312C374.965 276.6 374.541 276.784 373.997 276.864L368.069 277.752C368.245 278.28 368.605 278.68 369.149 278.952C369.693 279.208 370.317 279.336 371.021 279.336C371.677 279.336 372.293 279.256 372.869 279.096C373.461 278.92 373.941 278.72 374.309 278.496C374.565 278.656 374.781 278.88 374.957 279.168C375.133 279.456 375.221 279.76 375.221 280.08C375.221 280.8 374.885 281.336 374.213 281.688C373.701 281.96 373.125 282.144 372.485 282.24C371.845 282.336 371.245 282.384 370.685 282.384ZM370.013 272.952C369.629 272.952 369.293 273.016 369.005 273.144C368.733 273.272 368.509 273.44 368.333 273.648C368.157 273.84 368.021 274.064 367.925 274.32C367.845 274.56 367.797 274.808 367.781 275.064L371.885 274.392C371.837 274.072 371.661 273.752 371.357 273.432C371.053 273.112 370.605 272.952 370.013 272.952ZM385.561 274.608C385.561 274.112 385.417 273.752 385.129 273.528C384.857 273.288 384.481 273.168 384.001 273.168C383.681 273.168 383.361 273.208 383.041 273.288C382.737 273.368 382.473 273.488 382.249 273.648V281.976C382.089 282.024 381.833 282.072 381.481 282.12C381.145 282.168 380.793 282.192 380.425 282.192C380.073 282.192 379.753 282.168 379.465 282.12C379.193 282.072 378.961 281.976 378.769 281.832C378.577 281.688 378.425 281.496 378.313 281.256C378.217 281 378.169 280.672 378.169 280.272V273.072C378.169 272.64 378.257 272.288 378.433 272.016C378.625 271.744 378.881 271.496 379.201 271.272C379.745 270.888 380.425 270.576 381.241 270.336C382.073 270.096 382.993 269.976 384.001 269.976C385.809 269.976 387.201 270.376 388.177 271.176C389.153 271.96 389.641 273.056 389.641 274.464V281.976C389.481 282.024 389.225 282.072 388.873 282.12C388.537 282.168 388.185 282.192 387.817 282.192C387.465 282.192 387.145 282.168 386.857 282.12C386.585 282.072 386.353 281.976 386.161 281.832C385.969 281.688 385.817 281.496 385.705 281.256C385.609 281 385.561 280.672 385.561 280.272V274.608ZM392.137 276.168C392.137 275.112 392.297 274.2 392.617 273.432C392.937 272.648 393.377 272 393.937 271.488C394.513 270.976 395.177 270.6 395.929 270.36C396.697 270.104 397.521 269.976 398.401 269.976C398.721 269.976 399.033 270.008 399.337 270.072C399.641 270.12 399.889 270.184 400.081 270.264V266.376C400.241 266.328 400.497 266.28 400.849 266.232C401.201 266.168 401.561 266.136 401.929 266.136C402.281 266.136 402.593 266.16 402.865 266.208C403.153 266.256 403.393 266.352 403.585 266.496C403.777 266.64 403.921 266.84 404.017 267.096C404.113 267.336 404.161 267.656 404.161 268.056V279.432C404.161 280.184 403.809 280.784 403.105 281.232C402.641 281.536 402.041 281.8 401.305 282.024C400.569 282.264 399.721 282.384 398.761 282.384C397.721 282.384 396.785 282.24 395.953 281.952C395.137 281.664 394.441 281.248 393.865 280.704C393.305 280.16 392.873 279.512 392.569 278.76C392.281 277.992 392.137 277.128 392.137 276.168ZM398.953 273.168C398.089 273.168 397.425 273.416 396.961 273.912C396.497 274.408 396.265 275.16 396.265 276.168C396.265 277.16 396.481 277.912 396.913 278.424C397.345 278.92 397.969 279.168 398.785 279.168C399.073 279.168 399.329 279.128 399.553 279.048C399.793 278.952 399.977 278.848 400.105 278.736V273.456C399.785 273.264 399.401 273.168 398.953 273.168ZM412.176 279.408C412.448 279.408 412.744 279.384 413.064 279.336C413.4 279.272 413.648 279.192 413.808 279.096V277.176L412.08 277.32C411.632 277.352 411.264 277.448 410.976 277.608C410.688 277.768 410.544 278.008 410.544 278.328C410.544 278.648 410.664 278.912 410.904 279.12C411.16 279.312 411.584 279.408 412.176 279.408ZM411.984 269.976C412.848 269.976 413.632 270.064 414.336 270.24C415.056 270.416 415.664 270.688 416.16 271.056C416.672 271.408 417.064 271.864 417.336 272.424C417.608 272.968 417.744 273.616 417.744 274.368V279.744C417.744 280.16 417.624 280.504 417.384 280.776C417.16 281.032 416.888 281.256 416.568 281.448C415.528 282.072 414.064 282.384 412.176 282.384C411.328 282.384 410.56 282.304 409.872 282.144C409.2 281.984 408.616 281.744 408.12 281.424C407.64 281.104 407.264 280.696 406.992 280.2C406.736 279.704 406.608 279.128 406.608 278.472C406.608 277.368 406.936 276.52 407.592 275.928C408.248 275.336 409.264 274.968 410.64 274.824L413.784 274.488V274.32C413.784 273.856 413.576 273.528 413.16 273.336C412.76 273.128 412.176 273.024 411.408 273.024C410.8 273.024 410.208 273.088 409.632 273.216C409.056 273.344 408.536 273.504 408.072 273.696C407.864 273.552 407.688 273.336 407.544 273.048C407.4 272.744 407.328 272.432 407.328 272.112C407.328 271.696 407.424 271.368 407.616 271.128C407.824 270.872 408.136 270.656 408.552 270.48C409.016 270.304 409.56 270.176 410.184 270.096C410.824 270.016 411.424 269.976 411.984 269.976ZM432.238 281.976C432.078 282.024 431.822 282.072 431.47 282.12C431.134 282.168 430.782 282.192 430.414 282.192C430.062 282.192 429.742 282.168 429.454 282.12C429.182 282.072 428.95 281.976 428.758 281.832C428.566 281.688 428.414 281.496 428.302 281.256C428.206 281 428.158 280.672 428.158 280.272V274.944C428.158 274.288 427.99 273.832 427.654 273.576C427.334 273.304 426.934 273.168 426.454 273.168C426.134 273.168 425.83 273.208 425.542 273.288C425.254 273.368 425.022 273.464 424.846 273.576V281.976C424.686 282.024 424.43 282.072 424.078 282.12C423.742 282.168 423.39 282.192 423.022 282.192C422.67 282.192 422.35 282.168 422.062 282.12C421.79 282.072 421.558 281.976 421.366 281.832C421.174 281.688 421.022 281.496 420.91 281.256C420.814 281 420.766 280.672 420.766 280.272V266.352C420.942 266.32 421.198 266.28 421.534 266.232C421.886 266.168 422.238 266.136 422.59 266.136C422.942 266.136 423.254 266.16 423.526 266.208C423.814 266.256 424.054 266.352 424.246 266.496C424.438 266.64 424.582 266.84 424.678 267.096C424.79 267.336 424.846 267.656 424.846 268.056V270.408C425.054 270.328 425.366 270.24 425.782 270.144C426.214 270.032 426.686 269.976 427.198 269.976C428.782 269.976 430.014 270.376 430.894 271.176C431.79 271.96 432.238 273.136 432.238 274.704V281.976ZM440.229 279.408C440.501 279.408 440.797 279.384 441.117 279.336C441.453 279.272 441.701 279.192 441.861 279.096V277.176L440.133 277.32C439.685 277.352 439.317 277.448 439.029 277.608C438.741 277.768 438.597 278.008 438.597 278.328C438.597 278.648 438.717 278.912 438.957 279.12C439.213 279.312 439.637 279.408 440.229 279.408ZM440.037 269.976C440.901 269.976 441.685 270.064 442.389 270.24C443.109 270.416 443.717 270.688 444.213 271.056C444.725 271.408 445.117 271.864 445.389 272.424C445.661 272.968 445.797 273.616 445.797 274.368V279.744C445.797 280.16 445.677 280.504 445.437 280.776C445.213 281.032 444.941 281.256 444.621 281.448C443.581 282.072 442.117 282.384 440.229 282.384C439.381 282.384 438.613 282.304 437.925 282.144C437.253 281.984 436.669 281.744 436.173 281.424C435.693 281.104 435.317 280.696 435.045 280.2C434.789 279.704 434.661 279.128 434.661 278.472C434.661 277.368 434.989 276.52 435.645 275.928C436.301 275.336 437.317 274.968 438.693 274.824L441.837 274.488V274.32C441.837 273.856 441.629 273.528 441.213 273.336C440.813 273.128 440.229 273.024 439.461 273.024C438.853 273.024 438.261 273.088 437.685 273.216C437.109 273.344 436.589 273.504 436.125 273.696C435.917 273.552 435.741 273.336 435.597 273.048C435.453 272.744 435.381 272.432 435.381 272.112C435.381 271.696 435.477 271.368 435.669 271.128C435.877 270.872 436.189 270.656 436.605 270.48C437.069 270.304 437.613 270.176 438.237 270.096C438.877 270.016 439.477 269.976 440.037 269.976ZM452.852 281.976C452.692 282.024 452.436 282.072 452.084 282.12C451.748 282.168 451.396 282.192 451.028 282.192C450.676 282.192 450.356 282.168 450.068 282.12C449.796 282.072 449.564 281.976 449.372 281.832C449.18 281.688 449.028 281.496 448.916 281.256C448.82 281 448.772 280.672 448.772 280.272V273.072C448.772 272.704 448.836 272.392 448.964 272.136C449.108 271.864 449.308 271.624 449.564 271.416C449.82 271.208 450.132 271.024 450.5 270.864C450.884 270.688 451.292 270.536 451.724 270.408C452.156 270.28 452.604 270.184 453.068 270.12C453.532 270.04 453.996 270 454.46 270C455.228 270 455.836 270.152 456.284 270.456C456.732 270.744 456.956 271.224 456.956 271.896C456.956 272.12 456.924 272.344 456.86 272.568C456.796 272.776 456.716 272.968 456.62 273.144C456.284 273.144 455.94 273.16 455.588 273.192C455.236 273.224 454.892 273.272 454.556 273.336C454.22 273.4 453.9 273.472 453.596 273.552C453.308 273.616 453.06 273.696 452.852 273.792V281.976ZM463.76 279.408C464.032 279.408 464.328 279.384 464.648 279.336C464.984 279.272 465.232 279.192 465.392 279.096V277.176L463.664 277.32C463.216 277.352 462.848 277.448 462.56 277.608C462.272 277.768 462.128 278.008 462.128 278.328C462.128 278.648 462.248 278.912 462.488 279.12C462.744 279.312 463.168 279.408 463.76 279.408ZM463.568 269.976C464.432 269.976 465.216 270.064 465.92 270.24C466.64 270.416 467.248 270.688 467.744 271.056C468.256 271.408 468.648 271.864 468.92 272.424C469.192 272.968 469.328 273.616 469.328 274.368V279.744C469.328 280.16 469.208 280.504 468.968 280.776C468.744 281.032 468.472 281.256 468.152 281.448C467.112 282.072 465.648 282.384 463.76 282.384C462.912 282.384 462.144 282.304 461.456 282.144C460.784 281.984 460.2 281.744 459.704 281.424C459.224 281.104 458.848 280.696 458.576 280.2C458.32 279.704 458.192 279.128 458.192 278.472C458.192 277.368 458.52 276.52 459.176 275.928C459.832 275.336 460.848 274.968 462.224 274.824L465.368 274.488V274.32C465.368 273.856 465.16 273.528 464.744 273.336C464.344 273.128 463.76 273.024 462.992 273.024C462.384 273.024 461.792 273.088 461.216 273.216C460.64 273.344 460.12 273.504 459.656 273.696C459.448 273.552 459.272 273.336 459.128 273.048C458.984 272.744 458.912 272.432 458.912 272.112C458.912 271.696 459.008 271.368 459.2 271.128C459.408 270.872 459.72 270.656 460.136 270.48C460.6 270.304 461.144 270.176 461.768 270.096C462.408 270.016 463.008 269.976 463.568 269.976Z" fill="#262626"/>
<rect x="354" y="364" width="111" height="46" rx="17" fill="white"/>
<rect x="354" y="364" width="111" height="46" rx="17" stroke="black" stroke-width="2"/>
<path d="M376.784 389.6V394.904C376.608 394.952 376.328 395 375.944 395.048C375.56 395.096 375.184 395.12 374.816 395.12C374.448 395.12 374.12 395.088 373.832 395.024C373.56 394.976 373.328 394.88 373.136 394.736C372.944 394.592 372.8 394.392 372.704 394.136C372.608 393.88 372.56 393.544 372.56 393.128V380.456C372.736 380.424 373.016 380.384 373.4 380.336C373.784 380.272 374.152 380.24 374.504 380.24C374.872 380.24 375.192 380.272 375.464 380.336C375.752 380.384 375.992 380.48 376.184 380.624C376.376 380.768 376.52 380.968 376.616 381.224C376.712 381.48 376.76 381.816 376.76 382.232V386.048L381.752 380.312C382.84 380.312 383.616 380.52 384.08 380.936C384.56 381.336 384.8 381.816 384.8 382.376C384.8 382.792 384.696 383.184 384.488 383.552C384.28 383.92 383.944 384.336 383.48 384.8L380.48 387.8C380.88 388.248 381.296 388.712 381.728 389.192C382.176 389.672 382.608 390.144 383.024 390.608C383.456 391.056 383.864 391.488 384.248 391.904C384.648 392.32 384.992 392.68 385.28 392.984C385.28 393.336 385.216 393.648 385.088 393.92C384.96 394.192 384.784 394.424 384.56 394.616C384.352 394.808 384.112 394.952 383.84 395.048C383.568 395.144 383.28 395.192 382.976 395.192C382.32 395.192 381.784 395.032 381.368 394.712C380.952 394.376 380.552 393.984 380.168 393.536L376.784 389.6ZM399.097 389.168C399.097 390.16 398.945 391.048 398.641 391.832C398.337 392.6 397.905 393.248 397.345 393.776C396.801 394.304 396.145 394.704 395.377 394.976C394.609 395.248 393.753 395.384 392.809 395.384C391.865 395.384 391.009 395.24 390.241 394.952C389.473 394.664 388.809 394.256 388.249 393.728C387.705 393.184 387.281 392.528 386.977 391.76C386.673 390.992 386.521 390.128 386.521 389.168C386.521 388.224 386.673 387.368 386.977 386.6C387.281 385.832 387.705 385.184 388.249 384.656C388.809 384.112 389.473 383.696 390.241 383.408C391.009 383.12 391.865 382.976 392.809 382.976C393.753 382.976 394.609 383.128 395.377 383.432C396.145 383.72 396.801 384.136 397.345 384.68C397.905 385.208 398.337 385.856 398.641 386.624C398.945 387.392 399.097 388.24 399.097 389.168ZM390.697 389.168C390.697 390.144 390.881 390.896 391.249 391.424C391.633 391.936 392.161 392.192 392.833 392.192C393.505 392.192 394.017 391.928 394.369 391.4C394.737 390.872 394.921 390.128 394.921 389.168C394.921 388.208 394.737 387.472 394.369 386.96C394.001 386.432 393.481 386.168 392.809 386.168C392.137 386.168 391.617 386.432 391.249 386.96C390.881 387.472 390.697 388.208 390.697 389.168ZM407.159 382.976C407.815 382.976 408.455 383.072 409.079 383.264C409.719 383.44 410.271 383.712 410.735 384.08C411.215 383.76 411.751 383.496 412.343 383.288C412.951 383.08 413.679 382.976 414.527 382.976C415.135 382.976 415.727 383.056 416.303 383.216C416.895 383.376 417.415 383.632 417.863 383.984C418.327 384.32 418.695 384.776 418.967 385.352C419.239 385.912 419.375 386.6 419.375 387.416V394.976C419.215 395.024 418.959 395.072 418.607 395.12C418.271 395.168 417.919 395.192 417.551 395.192C417.199 395.192 416.879 395.168 416.591 395.12C416.319 395.072 416.087 394.976 415.895 394.832C415.703 394.688 415.551 394.496 415.439 394.256C415.343 394 415.295 393.672 415.295 393.272V387.536C415.295 387.056 415.159 386.712 414.887 386.504C414.615 386.28 414.247 386.168 413.783 386.168C413.559 386.168 413.319 386.224 413.063 386.336C412.807 386.432 412.615 386.536 412.487 386.648C412.503 386.712 412.511 386.776 412.511 386.84C412.511 386.888 412.511 386.936 412.511 386.984V394.976C412.335 395.024 412.071 395.072 411.719 395.12C411.383 395.168 411.039 395.192 410.687 395.192C410.335 395.192 410.015 395.168 409.727 395.12C409.455 395.072 409.223 394.976 409.031 394.832C408.839 394.688 408.687 394.496 408.575 394.256C408.479 394 408.431 393.672 408.431 393.272V387.536C408.431 387.056 408.279 386.712 407.975 386.504C407.687 386.28 407.335 386.168 406.919 386.168C406.631 386.168 406.383 386.216 406.175 386.312C405.967 386.392 405.791 386.472 405.647 386.552V394.976C405.487 395.024 405.231 395.072 404.879 395.12C404.543 395.168 404.191 395.192 403.823 395.192C403.471 395.192 403.151 395.168 402.863 395.12C402.591 395.072 402.359 394.976 402.167 394.832C401.975 394.688 401.823 394.496 401.711 394.256C401.615 394 401.567 393.672 401.567 393.272V386.024C401.567 385.592 401.655 385.248 401.831 384.992C402.023 384.736 402.279 384.496 402.599 384.272C403.143 383.888 403.815 383.576 404.615 383.336C405.431 383.096 406.279 382.976 407.159 382.976ZM422.248 380.096C422.248 379.488 422.448 378.976 422.848 378.56C423.264 378.144 423.808 377.936 424.48 377.936C425.152 377.936 425.688 378.144 426.088 378.56C426.504 378.976 426.712 379.488 426.712 380.096C426.712 380.704 426.504 381.216 426.088 381.632C425.688 382.048 425.152 382.256 424.48 382.256C423.808 382.256 423.264 382.048 422.848 381.632C422.448 381.216 422.248 380.704 422.248 380.096ZM426.52 394.976C426.344 395.008 426.08 395.048 425.728 395.096C425.392 395.16 425.048 395.192 424.696 395.192C424.344 395.192 424.024 395.168 423.736 395.12C423.464 395.072 423.232 394.976 423.04 394.832C422.848 394.688 422.696 394.496 422.584 394.256C422.488 394 422.44 393.672 422.44 393.272V383.504C422.616 383.472 422.872 383.432 423.208 383.384C423.56 383.32 423.912 383.288 424.264 383.288C424.616 383.288 424.928 383.312 425.2 383.36C425.488 383.408 425.728 383.504 425.92 383.648C426.112 383.792 426.256 383.992 426.352 384.248C426.464 384.488 426.52 384.808 426.52 385.208V394.976ZM439.438 391.52C439.438 392.736 438.982 393.688 438.07 394.376C437.158 395.064 435.814 395.408 434.038 395.408C433.366 395.408 432.742 395.36 432.166 395.264C431.59 395.168 431.094 395.024 430.678 394.832C430.278 394.624 429.958 394.368 429.718 394.064C429.494 393.76 429.382 393.4 429.382 392.984C429.382 392.6 429.462 392.28 429.622 392.024C429.782 391.752 429.974 391.528 430.198 391.352C430.662 391.608 431.19 391.84 431.782 392.048C432.39 392.24 433.086 392.336 433.87 392.336C434.366 392.336 434.742 392.264 434.998 392.12C435.27 391.976 435.406 391.784 435.406 391.544C435.406 391.32 435.31 391.144 435.118 391.016C434.926 390.888 434.606 390.784 434.158 390.704L433.438 390.56C432.046 390.288 431.006 389.864 430.318 389.288C429.646 388.696 429.31 387.856 429.31 386.768C429.31 386.176 429.438 385.64 429.694 385.16C429.95 384.68 430.31 384.28 430.774 383.96C431.238 383.64 431.79 383.392 432.43 383.216C433.086 383.04 433.806 382.952 434.59 382.952C435.182 382.952 435.734 383 436.246 383.096C436.774 383.176 437.23 383.304 437.614 383.48C437.998 383.656 438.302 383.888 438.526 384.176C438.75 384.448 438.862 384.776 438.862 385.16C438.862 385.528 438.79 385.848 438.646 386.12C438.518 386.376 438.35 386.592 438.142 386.768C438.014 386.688 437.822 386.608 437.566 386.528C437.31 386.432 437.03 386.352 436.726 386.288C436.422 386.208 436.11 386.144 435.79 386.096C435.486 386.048 435.206 386.024 434.95 386.024C434.422 386.024 434.014 386.088 433.726 386.216C433.438 386.328 433.294 386.512 433.294 386.768C433.294 386.944 433.374 387.088 433.534 387.2C433.694 387.312 433.998 387.416 434.446 387.512L435.19 387.68C436.726 388.032 437.814 388.52 438.454 389.144C439.11 389.752 439.438 390.544 439.438 391.52ZM441.794 380.096C441.794 379.488 441.994 378.976 442.394 378.56C442.81 378.144 443.354 377.936 444.026 377.936C444.698 377.936 445.234 378.144 445.634 378.56C446.05 378.976 446.258 379.488 446.258 380.096C446.258 380.704 446.05 381.216 445.634 381.632C445.234 382.048 444.698 382.256 444.026 382.256C443.354 382.256 442.81 382.048 442.394 381.632C441.994 381.216 441.794 380.704 441.794 380.096ZM446.066 394.976C445.89 395.008 445.626 395.048 445.274 395.096C444.938 395.16 444.594 395.192 444.242 395.192C443.89 395.192 443.57 395.168 443.282 395.12C443.01 395.072 442.778 394.976 442.586 394.832C442.394 394.688 442.242 394.496 442.13 394.256C442.034 394 441.986 393.672 441.986 393.272V383.504C442.162 383.472 442.418 383.432 442.754 383.384C443.106 383.32 443.458 383.288 443.81 383.288C444.162 383.288 444.474 383.312 444.746 383.36C445.034 383.408 445.274 383.504 445.466 383.648C445.658 383.792 445.802 383.992 445.898 384.248C446.01 384.488 446.066 384.808 446.066 385.208V394.976Z" fill="black"/>
<rect x="513" y="364" width="103" height="46" rx="17" fill="white"/>
<rect x="513" y="364" width="103" height="46" rx="17" stroke="black" stroke-width="2"/>
<path d="M535.64 392C535.864 392.064 536.152 392.112 536.504 392.144C536.856 392.16 537.192 392.168 537.512 392.168C538.152 392.168 538.68 392.04 539.096 391.784C539.528 391.512 539.744 391.096 539.744 390.536C539.744 390.008 539.568 389.632 539.216 389.408C538.864 389.184 538.328 389.072 537.608 389.072H535.64V392ZM535.64 386.144H537.392C538.08 386.144 538.576 386.016 538.88 385.76C539.2 385.504 539.36 385.128 539.36 384.632C539.36 384.2 539.176 383.856 538.808 383.6C538.456 383.344 537.92 383.216 537.2 383.216C536.96 383.216 536.68 383.224 536.36 383.24C536.056 383.256 535.816 383.28 535.64 383.312V386.144ZM537.2 395.384C536.928 395.384 536.608 395.376 536.24 395.36C535.872 395.344 535.488 395.312 535.088 395.264C534.704 395.216 534.32 395.152 533.936 395.072C533.552 395.008 533.2 394.912 532.88 394.784C532 394.448 531.56 393.864 531.56 393.032V381.824C531.56 381.488 531.648 381.232 531.824 381.056C532.016 380.864 532.272 380.712 532.592 380.6C533.136 380.408 533.816 380.272 534.632 380.192C535.448 380.096 536.288 380.048 537.152 380.048C539.2 380.048 540.776 380.392 541.88 381.08C542.984 381.768 543.536 382.832 543.536 384.272C543.536 384.992 543.328 385.616 542.912 386.144C542.496 386.656 541.936 387.032 541.232 387.272C542.032 387.496 542.696 387.904 543.224 388.496C543.768 389.088 544.04 389.832 544.04 390.728C544.04 392.312 543.448 393.488 542.264 394.256C541.096 395.008 539.408 395.384 537.2 395.384ZM551.579 392.408C551.851 392.408 552.147 392.384 552.467 392.336C552.803 392.272 553.051 392.192 553.211 392.096V390.176L551.483 390.32C551.035 390.352 550.667 390.448 550.379 390.608C550.091 390.768 549.947 391.008 549.947 391.328C549.947 391.648 550.067 391.912 550.307 392.12C550.563 392.312 550.987 392.408 551.579 392.408ZM551.387 382.976C552.251 382.976 553.035 383.064 553.739 383.24C554.459 383.416 555.067 383.688 555.563 384.056C556.075 384.408 556.467 384.864 556.739 385.424C557.011 385.968 557.147 386.616 557.147 387.368V392.744C557.147 393.16 557.027 393.504 556.787 393.776C556.563 394.032 556.291 394.256 555.971 394.448C554.931 395.072 553.467 395.384 551.579 395.384C550.731 395.384 549.963 395.304 549.275 395.144C548.603 394.984 548.019 394.744 547.523 394.424C547.043 394.104 546.667 393.696 546.395 393.2C546.139 392.704 546.011 392.128 546.011 391.472C546.011 390.368 546.339 389.52 546.995 388.928C547.651 388.336 548.667 387.968 550.043 387.824L553.187 387.488V387.32C553.187 386.856 552.979 386.528 552.563 386.336C552.163 386.128 551.579 386.024 550.811 386.024C550.203 386.024 549.611 386.088 549.035 386.216C548.459 386.344 547.939 386.504 547.475 386.696C547.267 386.552 547.091 386.336 546.947 386.048C546.803 385.744 546.731 385.432 546.731 385.112C546.731 384.696 546.827 384.368 547.019 384.128C547.227 383.872 547.539 383.656 547.955 383.48C548.419 383.304 548.963 383.176 549.587 383.096C550.227 383.016 550.827 382.976 551.387 382.976ZM559.618 389.168C559.618 388.112 559.778 387.2 560.098 386.432C560.418 385.648 560.858 385 561.418 384.488C561.994 383.976 562.658 383.6 563.41 383.36C564.178 383.104 565.002 382.976 565.882 382.976C566.202 382.976 566.514 383.008 566.818 383.072C567.122 383.12 567.37 383.184 567.562 383.264V379.376C567.722 379.328 567.978 379.28 568.33 379.232C568.682 379.168 569.042 379.136 569.41 379.136C569.762 379.136 570.074 379.16 570.346 379.208C570.634 379.256 570.874 379.352 571.066 379.496C571.258 379.64 571.402 379.84 571.498 380.096C571.594 380.336 571.642 380.656 571.642 381.056V392.432C571.642 393.184 571.29 393.784 570.586 394.232C570.122 394.536 569.522 394.8 568.786 395.024C568.05 395.264 567.202 395.384 566.242 395.384C565.202 395.384 564.266 395.24 563.434 394.952C562.618 394.664 561.922 394.248 561.346 393.704C560.786 393.16 560.354 392.512 560.05 391.76C559.762 390.992 559.618 390.128 559.618 389.168ZM566.434 386.168C565.57 386.168 564.906 386.416 564.442 386.912C563.978 387.408 563.746 388.16 563.746 389.168C563.746 390.16 563.962 390.912 564.394 391.424C564.826 391.92 565.45 392.168 566.266 392.168C566.554 392.168 566.81 392.128 567.034 392.048C567.274 391.952 567.458 391.848 567.586 391.736V386.456C567.266 386.264 566.882 386.168 566.434 386.168ZM579.657 392.408C579.929 392.408 580.225 392.384 580.545 392.336C580.881 392.272 581.129 392.192 581.289 392.096V390.176L579.561 390.32C579.113 390.352 578.745 390.448 578.457 390.608C578.169 390.768 578.025 391.008 578.025 391.328C578.025 391.648 578.145 391.912 578.385 392.12C578.641 392.312 579.065 392.408 579.657 392.408ZM579.465 382.976C580.329 382.976 581.113 383.064 581.817 383.24C582.537 383.416 583.145 383.688 583.641 384.056C584.153 384.408 584.545 384.864 584.817 385.424C585.089 385.968 585.225 386.616 585.225 387.368V392.744C585.225 393.16 585.105 393.504 584.865 393.776C584.641 394.032 584.369 394.256 584.049 394.448C583.009 395.072 581.545 395.384 579.657 395.384C578.809 395.384 578.041 395.304 577.353 395.144C576.681 394.984 576.097 394.744 575.601 394.424C575.121 394.104 574.745 393.696 574.473 393.2C574.217 392.704 574.089 392.128 574.089 391.472C574.089 390.368 574.417 389.52 575.073 388.928C575.729 388.336 576.745 387.968 578.121 387.824L581.265 387.488V387.32C581.265 386.856 581.057 386.528 580.641 386.336C580.241 386.128 579.657 386.024 578.889 386.024C578.281 386.024 577.689 386.088 577.113 386.216C576.537 386.344 576.017 386.504 575.553 386.696C575.345 386.552 575.169 386.336 575.025 386.048C574.881 385.744 574.809 385.432 574.809 385.112C574.809 384.696 574.905 384.368 575.097 384.128C575.305 383.872 575.617 383.656 576.033 383.48C576.497 383.304 577.041 383.176 577.665 383.096C578.305 383.016 578.905 382.976 579.465 382.976ZM598.039 391.52C598.039 392.736 597.583 393.688 596.671 394.376C595.759 395.064 594.415 395.408 592.639 395.408C591.967 395.408 591.343 395.36 590.767 395.264C590.191 395.168 589.695 395.024 589.279 394.832C588.879 394.624 588.559 394.368 588.319 394.064C588.095 393.76 587.983 393.4 587.983 392.984C587.983 392.6 588.063 392.28 588.223 392.024C588.383 391.752 588.575 391.528 588.799 391.352C589.263 391.608 589.791 391.84 590.383 392.048C590.991 392.24 591.687 392.336 592.471 392.336C592.967 392.336 593.343 392.264 593.599 392.12C593.871 391.976 594.007 391.784 594.007 391.544C594.007 391.32 593.911 391.144 593.719 391.016C593.527 390.888 593.207 390.784 592.759 390.704L592.039 390.56C590.647 390.288 589.607 389.864 588.919 389.288C588.247 388.696 587.911 387.856 587.911 386.768C587.911 386.176 588.039 385.64 588.295 385.16C588.551 384.68 588.911 384.28 589.375 383.96C589.839 383.64 590.391 383.392 591.031 383.216C591.687 383.04 592.407 382.952 593.191 382.952C593.783 382.952 594.335 383 594.847 383.096C595.375 383.176 595.831 383.304 596.215 383.48C596.599 383.656 596.903 383.888 597.127 384.176C597.351 384.448 597.463 384.776 597.463 385.16C597.463 385.528 597.391 385.848 597.247 386.12C597.119 386.376 596.951 386.592 596.743 386.768C596.615 386.688 596.423 386.608 596.167 386.528C595.911 386.432 595.631 386.352 595.327 386.288C595.023 386.208 594.711 386.144 594.391 386.096C594.087 386.048 593.807 386.024 593.551 386.024C593.023 386.024 592.615 386.088 592.327 386.216C592.039 386.328 591.895 386.512 591.895 386.768C591.895 386.944 591.975 387.088 592.135 387.2C592.295 387.312 592.599 387.416 593.047 387.512L593.791 387.68C595.327 388.032 596.415 388.52 597.055 389.144C597.711 389.752 598.039 390.544 598.039 391.52Z" fill="black"/>
</svg>
